<svg xmlns="http://www.w3.org/2000/svg" viewBox="0 0 64 64">
  <rect width="64" height="64" rx="12" fill="#f5ece0"/>
  <rect x="10" y="10" width="6" height="6" rx="1" fill="#e06858"/>
  <rect x="19" y="10" width="6" height="6" rx="1" fill="#e8a838"/>
  <rect x="28" y="10" width="6" height="6" rx="1" fill="#e8a838"/>
  <rect x="37" y="10" width="6" height="6" rx="1" fill="#6ab848"/>
  <rect x="46" y="10" width="6" height="6" rx="1" fill="#6ab848"/>
  <rect x="10" y="19" width="6" height="6" rx="1" fill="#e06858"/>
  <rect x="19" y="19" width="6" height="6" rx="1" fill="#e06858"/>
  <rect x="28" y="19" width="6" height="6" rx="1" fill="#e8a838"/>
  <rect x="37" y="19" width="6" height="6" rx="1" fill="#e8a838"/>
  <rect x="46" y="19" width="6" height="6" rx="1" fill="#6ab848"/>
  <rect x="10" y="28" width="6" height="6" rx="1" fill="#e06858"/>
  <rect x="19" y="28" width="6" height="6" rx="1" fill="#e8a838"/>
  <rect x="28" y="28" width="6" height="6" rx="1" fill="#e8a838"/>
  <rect x="37" y="28" width="6" height="6" rx="1" fill="#6ab848"/>
  <rect x="46" y="28" width="6" height="6" rx="1" fill="#6ab848"/>
  <rect x="10" y="37" width="6" height="6" rx="1" fill="#e8a838"/>
  <rect x="19" y="37" width="6" height="6" rx="1" fill="#e8a838"/>
  <rect x="28" y="37" width="6" height="6" rx="1" fill="#6ab848"/>
  <rect x="37" y="37" width="6" height="6" rx="1" fill="#6ab848"/>
  <rect x="46" y="37" width="6" height="6" rx="1" fill="#6ab848"/>
  <rect x="10" y="46" width="6" height="6" rx="1" fill="#e8a838" opacity="0.3"/>
  <rect x="19" y="46" width="6" height="6" rx="1" fill="#e8a838" opacity="0.3"/>
  <rect x="28" y="46" width="6" height="6" rx="1" fill="#6ab848" opacity="0.3"/>
  <rect x="37" y="46" width="6" height="6" rx="1" fill="#6ab848" opacity="0.3"/>
  <rect x="46" y="46" width="6" height="6" rx="1" fill="#6ab848" opacity="0.3"/>
</svg>
